<?xml version="1.0" encoding="utf-8"?>
<!-- Generator: Adobe Illustrator 24.1.0, SVG Export Plug-In . SVG Version: 6.00 Build 0)  -->
<svg version="1.1" xmlns="http://www.w3.org/2000/svg" xmlns:xlink="http://www.w3.org/1999/xlink" x="0px" y="0px"
	 viewBox="0 0 3671 510" style="enable-background:new 0 0 3671 510;" xml:space="preserve">
<style type="text/css">
	.st0{fill:#3F3D56;}
</style>
<g id="bird-cells">
</g>
<g id="Layer_2">
	<path class="st0" d="M3024.8,350.7l186.3-67.6c0,0-61.5-30.7-118-7.3c-12.2-31.2-41.9-70.7-114.2-62.7l93.1,74.5
		C3050.6,303.7,3034.2,325.6,3024.8,350.7z"/>
	<path class="st0" d="M2713.4,287.5L2610.9,264c61.4-38.4,105.2-16.1,129.8,6.6l0.3-0.1c56.5-23.5,118,7.3,118,7.3l-186.3,67.6
		C2681.1,322.9,2695.2,303,2713.4,287.5z"/>
	<path class="st0" d="M1908.1,334.2c1.6-4.2,3.4-8.3,5.4-12.4c11-36.6,38.4-54,61.3-62.2l0.2,0.4l1.4-0.8c56.5-23.5,118,7.3,118,7.3
		l-138.7,50.4l-46.6,55.2c-1.2-14.7-0.5-27.5,1.7-38.9L1908.1,334.2z"/>
	<path class="st0" d="M2265,314.9c37.1-61.7,85.8-62.1,118-53.2l1-0.5c56.5-23.5,118,7.3,118,7.3l-186.3,67.6
		c5.4-14.5,13.2-27.8,22.9-39.6L2265,314.9z"/>
	<path class="st0" d="M1738.8,250.6c0,0-61.5-30.7-118-7.3l-0.7,0.4l-0.3-0.6l0.1,0.3c-0.4,0.3-0.8,0.7-1.1,1l-19.1,10.7
		c-21.4,16.1-37.8,38-47.2,63.1l32.6-11.8c-1.9,18.3,1.4,39.9,13.5,65.2l28.4-80.4L1738.8,250.6z"/>
	<path class="st0" d="M1356.1,250.8c0,0-61.5-30.7-118-7.3l-0.6,0.4l-0.1-0.1l0.1,0.1l-20.5,11.4c-21.4,16.1-37.8,38-47.2,63.1
		l54.7-19.9c1.5,22.3,11.7,47.3,38.4,72.8l-1.9-86.1L1356.1,250.8z"/>
	<path class="st0" d="M962.9,262.5c0,0-61.5-30.7-118-7.3l-0.6,0.3l-0.3-0.1l0.3,0.1L823.7,267c-21.4,16.1-37.8,38-47.2,63.1
		l75.5-27.4c9.8,22.3,30.2,43.8,69.9,57l-35.1-69.6L962.9,262.5z"/>
	<path class="st0" d="M632.9,304.5l-44.3-28.1l42.7-15.5c0,0-61.5-30.7-118-7.3l-21.1,11.8c-21.4,16.1-37.8,38-47.2,63.1l99.8-36.2
		C564.7,305.9,592.9,313.4,632.9,304.5z"/>
	<path class="st0" d="M3450.6,284.6l-50.2-92.3c69.5,20.6,81.8,68.1,81,101.6l0.3,0.1L3450.6,284.6z"/>
	<path class="st0" d="M3456.1,278c-21.4,16.1-37.8,38-47.2,63.1l186.3-67.6c0,0-61.5-30.7-118-7.3L3456.1,278z"/>
	<path class="st0" d="M169.9,265.4c-21.4,16.1-37.8,38-47.2,63.1L309,260.9c0,0-61.5-30.7-118-7.3L169.9,265.4z"/>
</g>
</svg>
