<?xml version="1.0" encoding="utf-8"?>
<!-- Generator: Adobe Illustrator 24.1.0, SVG Export Plug-In . SVG Version: 6.00 Build 0)  -->
<svg version="1.1" xmlns="http://www.w3.org/2000/svg" xmlns:xlink="http://www.w3.org/1999/xlink" x="0px" y="0px"
	 viewBox="0 0 1406.4 510" style="enable-background:new 0 0 1406.4 510;" xml:space="preserve">
<style type="text/css">
	.st0{fill:#3F3D56;}
</style>
<g id="bird-cells">
</g>
<g id="Layer_2">
	<path class="st0" d="M122.7,350.7L309,283.1c0,0-61.5-30.7-118-7.3c-12.2-31.2-41.9-70.7-114.2-62.7l93.1,74.5
		C148.5,303.7,132.1,325.6,122.7,350.7z"/>
	<path class="st0" d="M504,287.5L401.6,264c61.4-38.4,105.2-16.1,129.8,6.6l0.3-0.1c56.5-23.5,118,7.3,118,7.3l-186.3,67.6
		C471.8,322.9,485.8,303,504,287.5z"/>
	<path class="st0" d="M1145.4,334.2c1.6-4.2,3.4-8.3,5.4-12.4c11-36.6,38.4-54,61.3-62.2l0.2,0.4l1.4-0.8c56.5-23.5,118,7.3,118,7.3
		L1193,316.9l-46.6,55.2c-1.2-14.7-0.5-27.5,1.7-38.9L1145.4,334.2z"/>
	<path class="st0" d="M742,314.9c37.1-61.7,85.8-62.1,118-53.2l1-0.5c56.5-23.5,118,7.3,118,7.3l-186.3,67.6
		c5.4-14.5,13.2-27.8,22.9-39.6L742,314.9z"/>
</g>
</svg>
